<?xml version="1.0" encoding="UTF-8" standalone="no"?>
<svg
   version="1.1"
   fill="none"
   width="348.07141"
   height="349.40784"
   viewBox="0 0 348.07141 349.40784"
   id="svg1"
   xml:space="preserve"
   xmlns="http://www.w3.org/2000/svg"
   xmlns:svg="http://www.w3.org/2000/svg"><defs
     id="defs1" /><g
     id="g26"
     transform="translate(-653,-330)"><path
       style="fill:#000000;fill-opacity:1"
       d="m 808.9595,679.20492 c -25.6107,-3.70711 -40.1188,-8.04228 -60,-17.92872 -42.958,-21.36203 -73.8391,-57.22618 -88.335,-102.58918 -6.4405,-20.15445 -7.5734,-28.08979 -7.6214,-53.37961 -0.038,-19.99138 0.2499,-24.44634 2.1997,-34.05687 11.1874,-55.142 46.7423,-100.88991 96.7567,-124.49521 36.4391,-17.19813 79.5991,-21.40194 117.8009,-11.47389 72.7867,18.9161 123.98669,80.42119 130.7364,157.04955 3.675,41.7225 -10.46501,88.07064 -37.06021,121.47642 -9.1216,11.4575 -25.50199,27.10673 -36.47709,34.84881 -11.2338,7.92464 -33.1909,18.88082 -46.1571,23.03163 -17.5027,5.60305 -27.8282,7.19133 -49.3429,7.58998 -10.725,0.19873 -20.85,0.16592 -22.5,-0.0729 z m 46.3984,-13.47328 c 21.9232,-3.73322 45.3655,-13.50584 64.1016,-26.72273 12.1869,-8.59686 30.66709,-27.04393 39.27209,-39.2015 43.66071,-61.68625 39.0766,-146.05212 -11.0515,-203.39081 -23.09399,-26.41604 -57.22779,-45.54195 -93.22059,-52.23352 -12.6673,-2.35506 -40.5909,-2.35861 -54,-0.007 -75.1559,13.18116 -129.5854,72.56406 -136.0532,148.4349 -2.5689,30.13354 3.3727,59.49763 17.6525,87.24196 22.3829,43.48788 64.1001,75.2509 111.5226,84.91206 21.6778,4.41631 39.8483,4.70059 61.7765,0.96651 z m 60.3242,-117.48093 c -4.7829,-3.35001 -3.3762,-5.57981 15.8511,-25.12715 9.9404,-10.10596 17.92779,-18.75562 17.74989,-19.22146 -0.178,-0.46584 -8.19859,-9.04948 -17.82359,-19.07476 -11.3617,-11.83427 -17.6139,-19.09923 -17.8249,-20.71229 -0.3929,-3.0042 2.3507,-6.30764 5.2387,-6.30764 1.4062,0 9.1465,7.04854 23.345,21.25853 19.23599,19.25173 21.24109,21.57622 21.24109,24.62394 0,3.01634 -1.9339,5.34929 -18.6444,22.49148 -10.25449,10.51933 -19.72959,20.13855 -21.05569,21.37605 -2.8353,2.64565 -5.0219,2.83333 -8.0772,0.6933 z"
       id="path3-8" /><path
       style="fill:#000000;fill-opacity:1;stroke-width:1.003"
       d="m 665.53137,538.2888 c -5.7545,-3.2527 -5.83782,-1.4036 4.27033,-20.3786 10.10806,-18.975 19.81714,-37.19998 21.57566,-40.49999 3.8045,-7.13939 8.3092,-10.07661 17.8319,-11.62706 11.91277,-1.93959 27.58958,1.95086 48.85944,12.12527 15.90588,7.60858 25.67471,14.33797 37.01983,25.50179 11.00931,10.83333 16.53892,20.46358 16.53892,28.80349 0,5.77702 2.26001,5.60388 -20.89322,40.6965 -41.82232,63.38877 -46.30297,74.18598 -51.56183,66.57712 l 33.97257,-49.72458 c 14.65759,-21.45385 24.39739,-40.75279 24.39739,-41.14302 0,-0.39024 -4.41417,-0.74573 -9.80925,-0.79 -12.16166,-0.0998 -18.76175,-1.62525 -19.12122,-4.41952 -0.51983,-4.04146 1.01051,-4.81157 6.94044,-3.49253 2.98833,0.66472 9.57543,1.04746 14.63803,0.85055 8.08403,-0.31443 9.5207,-0.6532 11.79967,-2.78233 5.90849,-5.52007 1.97342,-16.52713 -10.36813,-29.00133 -20.62128,-20.84294 -61.10883,-39.04119 -81.36713,-36.57272 -6.82781,0.83197 -11.30831,4.33374 -11.30721,8.83727 0,5.29253 5.35011,14.90127 12.47226,22.40544 6.00859,6.33097 6.58345,7.29901 6.01424,10.12784 -0.34619,1.7203 -1.0097,3.12781 -1.4747,3.12781 -3.14793,0 -15.19912,-14.28045 -19.6312,-23.26281 l -2.7651,-5.60384 m 16.90971,126.33425 c -0.3957,-0.3868 1.98864,-4.44081 12.27207,-15.98258 10.28343,-11.54176 21.89023,-24.69508 25.7929,-29.22959 3.90266,-4.53451 7.21366,-8.12735 7.35772,-7.98408 0.14419,0.14327 -0.82417,4.97832 -2.1519,10.74457 -9.49309,41.22984 -11.51939,52.74145 -12.13937,53.22787 -5.57347,4.37475 -19.95673,0.14954 -31.13142,-10.77619 z m -16.23574,-11.97343 c -8.7741,-6.46635 -16.12766,-17.80396 -16.12766,-17.80396 l -2.99085,-8.6891 4.38408,-5.14423 c 20.91194,-24.53787 29.90196,-34.79566 30.33687,-34.36333 0.55344,0.55004 -2.72514,18.00172 -7.38061,42.50645 -5.24074,27.58543 -3.69973,26.82683 -8.22183,23.49417 z m 58.43587,5.75583 c 0.90175,-2.92431 4.28801,-17.81802 8.1282,-35.75 2.0023,-9.35 3.85197,-17.71556 4.11046,-18.59014 0.4192,-1.41877 1.19992,-1.44968 7.24414,-0.28676 3.7258,0.71686 8.28866,1.31993 10.13966,1.34014 l 3.36532,0.0368 -2.76581,4.75 c -1.52119,2.6125 -6.92955,11.5 -12.01851,19.75 -5.08893,8.25 -11.17208,18.4875 -13.51795,22.75 -4.11746,7.4815 -5.811,9.65012 -4.68551,6 z m -47.05334,-7.25209 c 0.79661,-4.12385 4.0869,-21.57426 7.3119,-38.7787 3.22489,-17.20443 6.11652,-31.53225 6.42571,-31.8396 0.30919,-0.30734 3.20031,1.19727 6.4247,3.34359 7.7965,5.18982 15.4617,9.30956 23.72028,12.74878 3.73507,1.55543 6.79102,3.01645 6.79102,3.24671 0,0.43381 -16.19933,18.60714 -33.7036,37.81053 -5.5334,6.07056 -11.94111,13.27146 -14.2395,16.00199 l -4.17871,4.96461 z m -37.50534,-45.22793 c -1.259,-4.66978 -6.64486,3.12228 -0.58956,-8.39996 3.42289,-6.5132 17.78482,-32.71415 17.96802,-32.53198 0.5636,0.5602 -15.17349,50.39912 -15.92309,50.39912 -0.38699,0 1.58104,-11.53298 -1.45537,-9.46718 z m 4.23963,10.23002 c 1.18361,-4.32333 16.67141,-51.25193 18.70304,-56.6713 l 1.93884,-5.1713 8.76053,9.01358 c 4.8182,4.95747 8.87791,9.3222 9.0214,9.69938 0.14353,0.37719 -2.3465,3.62651 -5.53345,7.22071 -3.18685,3.5942 -10.83835,12.35657 -17.00335,19.47192 -17.6794,20.40496 -16.69431,19.38588 -15.88701,16.43701 z m 77.8252,-26.86506 c -4.74618,-2.0675 -13.28678,-6.79224 -18.97916,-10.49941 -10.09374,-6.5736 -10.33422,-6.81761 -9.72112,-9.86501 0.3459,-1.71858 0.83294,-3.32756 1.08235,-3.57552 0.24951,-0.24796 4.83199,2.3684 10.18355,5.81415 5.3514,3.44574 14.3104,8.2872 19.90891,10.75881 5.59853,2.4716 10.59692,4.87272 11.1076,5.33581 1.41063,1.2792 -1.09922,5.90483 -3.17053,5.84325 -0.98023,-0.0292 -5.66543,-1.74458 -10.4116,-3.81208 z m 24.72656,-6.61479 c -27.65774,-6.05186 -67.91024,-35.62461 -67.91024,-49.8924 0,-9.19273 36.4355,0.79788 61.37073,16.82786 18.67785,12.00729 34.39247,31.34086 27.58495,33.9374 -2.67636,1.0208 -14.66319,0.52364 -21.04544,-0.87286 z"
       id="path1-6" /><path
       style="fill:#ffffff"
       d="M 884.44444,167.40741 873.33333,98.518519"
       id="path5-5"
       transform="translate(-56.24981,355.71765)" /><path
       style="opacity:1;fill:#000000;fill-opacity:1;stroke-width:19.1644"
       id="path25"
       d="m 882.78458,366.40267 c 0,0 9.79774,2.60878 14.19521,9.06749 l -94.97296,283.61016 c 5.1043,-9.53165 -21.34895,-0.1344 -15.57622,-7.81224 z" /></g></svg>
