<?xml version="1.0" encoding="UTF-8" standalone="no"?>
<svg
   version="1.1"
   fill="none"
   width="348.07147"
   height="349.40787"
   viewBox="0 0 348.07147 349.40787"
   id="svg1"
   xmlns="http://www.w3.org/2000/svg"
   xmlns:svg="http://www.w3.org/2000/svg">
  <defs
     id="defs1" />
  <path
     style="fill:#ffffff;fill-opacity:1"
     d="m 155.95949,349.20492 c -25.6107,-3.70711 -40.1188,-8.04228 -59.999996,-17.92872 -42.958,-21.36203 -73.8391,-57.22618 -88.3349999,-102.58918 -6.440501,-20.15445 -7.57340099,-28.08979 -7.62140099,-53.37961 -0.038,-19.99138 0.2499,-24.44634 2.19969999,-34.05687 C 13.390194,86.10854 48.945094,40.36063 98.959494,16.755331 135.39859,-0.44279902 178.55859,-4.6466091 216.76039,5.2814409 289.54709,24.197541 340.74714,85.70263 347.49684,162.33099 c 3.675,41.7225 -10.465,88.07064 -37.0602,121.47642 -9.1216,11.4575 -25.50205,27.10673 -36.47715,34.84881 -11.2338,7.92464 -33.1909,18.88082 -46.1571,23.03163 -17.5027,5.60305 -27.8282,7.19133 -49.3429,7.58998 -10.725,0.19873 -20.85,0.16592 -22.5,-0.0729 z m 46.3984,-13.47328 c 21.9232,-3.73322 45.3655,-13.50584 64.1016,-26.72273 12.1869,-8.59686 30.66715,-27.04393 39.27215,-39.2015 43.6607,-61.68625 39.0766,-146.05212 -11.0515,-203.39081 -23.09405,-26.41604 -57.22785,-45.541949 -93.22065,-52.233519 -12.6673,-2.35506 -40.5909,-2.35861 -54,-0.007 C 72.303594,27.357241 17.874094,86.74014 11.406294,162.61098 c -2.5688999,30.13354 3.3727,59.49763 17.6525,87.24196 22.3829,43.48788 64.1001,75.2509 111.522596,84.91206 21.6778,4.41631 39.8483,4.70059 61.7765,0.96651 z m -45.3984,-16.07066 c -11.5318,-1.47184 -27.3459,-5.6444 -38.5,-10.15823 -10.8358,-4.38507 -25.349496,-12.31447 -24.807396,-13.55333 0.1691,-0.38647 10.207396,-9.96216 22.307396,-21.27932 l 22,-20.57664 24.25,-40.43351 c 13.3375,-22.23843 24.25,-40.75279 24.25,-41.14302 0,-0.39024 -4.3875,-0.74573 -9.75,-0.79 -12.0882,-0.0998 -18.6484,-1.62525 -19.0057,-4.41952 -0.5167,-4.04146 1.0044,-4.81157 6.8985,-3.49253 2.9703,0.66472 9.5176,1.04746 14.5496,0.85055 8.0352,-0.31443 9.4632,-0.6532 11.7284,-2.78233 5.8728,-5.52007 1.9615,-16.52713 -10.3055,-29.00134 -20.4967,-20.84294 -60.7397,-39.04119 -80.875596,-36.57272 -6.7866,0.83197 -11.24,4.33374 -11.2389,8.83726 0,5.29254 5.3178,14.90129 12.396896,22.40545 5.9723,6.33097 6.5437,7.29901 5.9779,10.12785 -0.3441,1.7203 -1.0036,3.12781 -1.4658,3.12781 -3.1289,0 -15.107296,-14.28046 -19.512596,-23.26281 l -2.7484,-5.60385 -10.9237,20.18333 c -34.291,63.35833 -34.8689,64.56734 -37.2874,78.00803 -0.3786,2.10358 -1.0334,3.45358 -1.4553,3 -0.4218,-0.45359 -1.603,-5.3247 -2.6247,-10.8247 -2.8046,-15.09753 -2.5641,-42.40832 0.4975,-56.49047 3.2188,-14.80547 6.746,-24.92118 12.8428,-36.83291 7.8807,-15.39708 14.493,-24.41625 27.2775,-37.20619 12.3017,-12.30703 22.4077,-19.63653 37.524496,-27.21513 13.3034,-6.66941 36.8317,-13.755299 45.6738,-13.755299 2.6491,0 2.9731,0.29126 2.5029,2.25 -0.297,1.2375 -0.8298,3.85173 -1.1839,5.809399 -0.6391,3.53344 -0.6957,3.56831 -7.7588,4.77949 -14.8793,2.55151 -34.8302,10.73242 -48.419996,19.85467 -15.1886,10.19541 -25.6381,20.50481 -36.7999,36.30644 -8.6041,12.18085 -18.0649,35.33732 -20.9422,51.25898 -1.9837,10.97625 -3.125,27.56392 -1.8056,26.24102 0.5485,-0.55 9.2176,-16.525 19.2647,-35.5 10.047,-18.975 19.6974,-37.2 21.4453,-40.5 3.7815,-7.13939 8.259,-10.07662 17.7242,-11.62707 11.840796,-1.93959 27.422896,1.95086 48.564296,12.12527 15.8098,7.60859 25.5196,14.33799 36.7962,25.5018 10.9428,10.83334 16.439,20.46359 16.439,28.8035 0,5.77702 0.6081,4.58537 -20.767,40.6965 -35.8741,60.60546 -35.5589,60.12417 -45.6406,69.70044 -5.0952,4.83976 -13.1309,12.17456 -17.8572,16.29956 -4.7263,4.125 -8.6252,7.83184 -8.6642,8.23743 -0.1109,1.15289 12.5454,7.2224 21.929,10.51637 9.1834,3.22365 26.713,6.84524 36.7432,7.59107 l 6.2431,0.46423 4.6684,-5.15455 c 9.0803,-9.42375 91.5459,-114.81236 4.8942,-250.04822 -12.6261,-19.705479 -15.4251,-18.730059 -11.5489,-22.606329 1.6568,-1.65678 3.33,-1.99931 9.75,-1.99598 23.0132,0.0119 51.9899,9.256439 73.2353,23.364369 20.1594,13.38686 39.77335,35.80289 49.98985,57.13161 3.1235,6.52083 11.0248,27.40829 11.0248,29.1445 0,0.24801 -2.7496,0.31696 -6.1102,0.15322 l -6.1103,-0.29772 -3.2113,-9 C 291.85209,110.1974 280.67869,93.03735 264.79739,77.73705 247.61159,61.17986 227.25819,50.05598 204.95949,45.0334 c -9.6294,-2.16895 -17.5,-3.47197 -17.5,-2.89723 0,0.19382 5.6963,6.08651 11.041,14.26182 74.4483,113.87881 11.8471,222.12072 6.6353,229.90942 -6.8796,10.28107 -19.2381,25.84136 -24.0383,30.2661 -4.4348,4.08784 -4.8096,4.22954 -10.8656,4.1074 -3.4498,-0.0696 -9.4224,-0.52854 -13.2724,-1.01993 z m 40.8491,-3.10427 c 0.8756,-1.23711 2.801,-4.09206 4.2785,-6.34433 2.387,-3.63837 3.6054,-4.39425 10.9262,-6.77837 41.3183,-13.45589 73.9382,-45.74105 87.12395,-86.22992 l 2.7345,-8.39668 h 5.7939 c 4.3187,0 5.7938,0.35895 5.7938,1.40982 0,2.83601 -6.1934,20.30717 -9.9578,28.09018 -20.40485,42.18772 -59.37045,71.86443 -104.91365,79.90348 -3.3323,0.58821 -3.353,0.569 -1.7794,-1.65418 z M 80.959494,286.68867 c -2.75,-2.22345 -5.3661,-4.39495 -5.8136,-4.82556 -0.5833,-0.56134 10.4871,-24.94824 14.0567,-30.96545 0.1337,-0.22536 4.2698,0.82545 9.1912,2.33514 4.921496,1.50968 12.412796,3.28057 16.647396,3.93531 l 7.6993,1.19044 -17.6341,15.97231 c -9.698796,8.78477 -17.974496,16.06864 -18.390496,16.18638 -0.416,0.11774 -3.0064,-1.60512 -5.7564,-3.82857 z m -14.2005,-12.98178 c -1.7295,0.0306 -7.5572,-9.74306 -7.5572,-9.74306 -4.0697,-4.65932 -3.4414,-4.72567 -4.1467,-5.68029 l -4.7901,-6.52386 1.7648,-13.22614 c 0.9707,-7.27437 1.9007,-13.39985 2.0667,-13.61218 0.166,-0.21233 3.0761,2.18244 6.4669,5.32171 3.3908,3.13928 9.694,8.18055 14.0071,11.20283 l 7.842,5.49506 -4.3207,8.68323 c -2.3764,4.77577 -5.3711,11.04572 -6.6548,13.93322 -2.4571,5.52702 -2.904,5.92343 -4.678,4.14948 z m 54.200496,-23.0342 c -7.4564,-0.68739 -25.104796,-5.10821 -26.714896,-6.69197 -0.3933,-0.3868 7.647896,-10.14652 17.869196,-21.68829 10.2213,-11.54176 21.758,-24.69508 25.6371,-29.22959 3.8791,-4.53451 7.1701,-8.12735 7.3133,-7.98408 0.1433,0.14327 -0.8192,4.97832 -2.1389,10.74457 -9.4358,41.22984 -12.6438,54.54325 -13.26,55.02967 -0.3881,0.30645 -4.3058,0.22531 -8.7058,-0.18031 z M 41.703494,235.46203 c -1.2408,-2.83504 -2.2533,-6.8127 -2.25,-8.83924 0,-3.31431 2.6275,-17.77012 3.3552,-18.49784 0.1623,-0.16234 1.3349,1.55477 2.6056,3.8158 2.267,4.03355 2.2863,4.31107 1.0247,14.73881 -1.7534,14.49318 -2.0198,14.98728 -4.7355,8.78247 z m 33.7569,-2.71401 c -8.7211,-6.46635 -15.1418,-12.48561 -18.7564,-17.58373 l -2.2284,-3.14311 14.6572,-17.35689 c 20.7482,-24.5699 29.7213,-34.79566 30.1536,-34.36333 0.5501,0.55004 -2.4699,18.04858 -7.336,42.50645 -2.3527,11.825 -4.8476,24.7625 -5.5444,28.75 -0.6967,3.9875 -1.6057,7.25 -2.02,7.25 -0.4143,0 -4.4308,-2.72673 -8.9256,-6.05939 z m 66.400696,-0.69061 c 0.8963,-2.92431 4.2621,-17.81802 8.0791,-35.75 1.9902,-9.35 3.8287,-17.71556 4.0856,-18.59014 0.4167,-1.41877 1.1927,-1.44968 7.2004,-0.28676 3.7033,0.71686 8.2386,1.31993 10.0784,1.34014 l 3.345,0.0368 -2.7491,4.75 c -1.512,2.6125 -6.8877,11.5 -11.9459,19.75 -5.0582,8.25 -11.1046,18.4875 -13.4363,22.75 -4.0926,7.4815 -5.7759,9.65012 -4.6572,6 z m -46.769096,-7.25209 c 0.7918,-4.12385 4.0622,-21.57426 7.267696,-38.7787 3.2054,-17.20443 6.0796,-31.53225 6.3869,-31.8396 0.3073,-0.30734 3.181,1.19727 6.3859,3.34359 7.7494,5.18982 15.3683,9.30956 23.577,12.74878 3.7125,1.55543 6.75,3.01645 6.75,3.24671 0,0.43381 -16.1015,18.60714 -33.5,37.81053 -5.5,6.07056 -11.869,13.27146 -14.153496,16.00199 l -4.1535,4.96461 z m 167.590096,-6.55461 c -4.7829,-3.35001 -3.3762,-5.57981 15.8511,-25.12715 9.9404,-10.10596 17.92785,-18.75562 17.74995,-19.22146 -0.178,-0.46584 -8.19865,-9.04948 -17.82365,-19.07476 -11.3617,-11.83427 -17.6139,-19.09923 -17.8249,-20.71229 -0.3929,-3.0042 2.3507,-6.30764 5.2387,-6.30764 1.4062,0 9.1465,7.04854 23.345,21.25853 19.23605,19.25173 21.24115,21.57622 21.24115,24.62394 0,3.01634 -1.9339,5.34929 -18.64445,22.49148 -10.2545,10.51933 -19.7296,20.13855 -21.0557,21.37605 -2.8353,2.64565 -5.0219,2.83333 -8.0772,0.6933 z M 48.089794,200.55741 c -1.2514,-4.66978 -0.4631,-7.34723 5.5556,-18.86947 3.4022,-6.5132 6.3349,-11.69313 6.517,-11.51096 0.5602,0.5602 -10.0252,32.63043 -10.7703,32.63043 -0.3846,0 -0.9706,-1.0125 -1.3023,-2.25 z m 13.9374,-10.75 c 1.1765,-4.32333 16.5707,-51.25193 18.5901,-56.67131 l 1.9271,-5.1713 8.7076,9.01359 c 4.7891,4.95747 8.824296,9.3222 8.966896,9.69938 0.1427,0.37719 -2.332296,3.62651 -5.499996,7.22071 -3.1676,3.5942 -10.7729,12.35657 -16.9006,19.47192 -17.5726,20.40496 -16.5935,19.38588 -15.7911,16.43701 z m 77.355096,-26.86506 c -4.7175,-2.0675 -13.2065,-6.79224 -18.8645,-10.49941 -10.0328,-6.5736 -10.2718,-6.81761 -9.6624,-9.86501 0.3438,-1.71858 0.8279,-3.32756 1.0758,-3.57552 0.248,-0.24796 4.8028,2.3684 10.122,5.81415 5.3191,3.44574 14.224,8.2872 19.7887,10.75881 5.5647,2.4716 10.5329,4.87272 11.0405,5.33581 1.4021,1.2792 -1.0926,5.90483 -3.1514,5.84325 -0.9743,-0.0292 -5.6312,-1.74458 -10.3487,-3.81208 z m 24.5772,-6.61479 c -27.4907,-6.05186 -67.499996,-35.62461 -67.499996,-49.89241 0,-9.19273 36.215396,0.79788 60.999996,16.82787 18.565,12.00728 34.1847,31.34086 27.4183,33.9374 -2.6602,1.0208 -14.5746,0.52364 -20.9183,-0.87286 z"
     id="path3" />
</svg>
