<?xml version="1.0" encoding="UTF-8" standalone="no"?>
<!-- Created with Inkscape (http://www.inkscape.org/) -->

<svg
   version="1.1"
   id="svg1"
   width="286.41507"
   height="120.53745"
   viewBox="0 0 286.41507 120.53745"
   sodipodi:docname="E-commerce logo design.jpeg"
   xmlns:inkscape="http://www.inkscape.org/namespaces/inkscape"
   xmlns:sodipodi="http://sodipodi.sourceforge.net/DTD/sodipodi-0.dtd"
   xmlns="http://www.w3.org/2000/svg"
   xmlns:svg="http://www.w3.org/2000/svg">
  <defs
     id="defs1" />

  <g
     inkscape:groupmode="layer"
     inkscape:label="Image"
     id="g1"
     inkscape:export-filename="g1.svg"
     inkscape:export-xdpi="96"
     inkscape:export-ydpi="96"
     transform="translate(-227.67744,-300.44731)">
    <g
       id="g2"
       transform="translate(2.2222188,-6.666667)">




      <path
         style="fill:#f29706"
         d="m 286.36704,405.22776 c -4.91667,-3.98265 -4.847,-1.0178 -1.28341,-54.61991 1.34261,-20.19508 1.9393,-21.28022 12.38241,-22.51884 4.828,-0.57264 4.99144,-0.7002 5.87979,-4.58901 0.50256,-2.2 2.43102,-5.87656 4.28546,-8.17013 6.7805,-8.38611 19.09485,-9.03426 27.72512,-1.45928 2.58513,2.26902 5.64359,8.54982 5.64359,11.58957 0,2.40757 0.28243,2.53984 5.42327,2.53984 6.56296,0 11.20466,3.2101 12.01638,8.31028 0.27922,1.75435 1.22348,16.7777 2.09835,33.38523 1.1452,21.73882 1.29044,30.75654 0.51861,32.19872 -2.28403,4.26774 -4.94532,5.10811 -16.02912,5.06157 L 334.5,406.9116 l 3.76756,-1.9887 c 4.04942,-2.13749 8.84264,-7.98012 11.83235,-14.42291 1.95493,-4.21282 2.64939,-15.5 0.95367,-15.5 -2.3253,0 -13.18942,7.35929 -14.463,9.79714 C 333.37926,390.94415 326.97574,395 320.48195,395 316.94059,395 312,393.2144 312,391.93451 c 0,-0.69825 3.29439,-2.79564 12.30945,-7.83687 2.09519,-1.17164 7.04519,-3.99311 11,-6.26994 3.9548,-2.27683 8.87434,-5.08199 10.9323,-6.23369 2.05796,-1.15171 3.74546,-2.67444 3.75,-3.38385 C 350.01523,364.53914 340.80894,352 338.09018,352 c -0.67817,0 -1.89615,-0.66311 -2.70661,-1.47357 -2.22597,-2.22597 -9.16966,-3.96521 -15.89418,-3.98114 -10.67909,-0.0253 -21.89418,7.48718 -27.45777,18.39273 -3.30475,6.47785 -3.10308,18.92095 0.42763,26.38426 2.69585,5.69855 9.33738,13.19834 13.04075,14.72596 1.25817,0.51899 -1.5237,0.84025 -7.5,0.86614 -7.55458,0.0327 -9.93679,-0.31267 -11.63296,-1.68662 z M 336,325.45034 c 0,-4.3718 -2.70539,-8.12931 -7.53714,-10.46832 -5.71235,-2.7653 -10.36741,-2.2122 -15.38595,1.82811 -3.31988,2.67276 -6.4484,8.71056 -5.40946,10.43987 0.24782,0.4125 6.72403,0.75 14.39157,0.75 H 336 Z m -32,51.25638 c 0,-3.75207 4.30642,-10.55094 8.36908,-13.21289 3.55991,-2.33255 9.95004,-2.80516 14.15768,-1.0471 1.98945,0.83125 3.35371,1.93766 3.03169,2.4587 -0.32202,0.52104 -4.29191,2.99108 -8.82197,5.48898 -4.53006,2.4979 -10.14898,5.70653 -12.48648,7.13029 l -4.25,2.58866 z"
         id="path4" />

      <path
         style="fill:#000"
         d="m 366,388 v -39 h 6.48821 c 5.56845,0 6.46742,0.24808 6.34156,1.75 -0.44549,5.31596 0.0224,5.58697 3.8475,2.2285 2.0225,-1.77578 5.15805,-3.8474 6.96788,-4.6036 3.86768,-1.61601 13.31393,-1.79173 18.52421,-0.34458 4.99844,1.38831 13.37598,9.15566 16.56889,15.36208 2.2426,4.3592 2.62264,6.35307 2.59364,13.6076 -0.0419,10.48429 -2.23515,16.00651 -9.05542,22.80004 -6.59511,6.56926 -11.19256,8.57317 -19.77647,8.62007 -7.28617,0.0398 -11.62987,-1.48688 -16.25,-5.7114 L 380,400.65137 V 413.82569 427 h -7 -7 z m 38.63355,6.3696 c 11.21634,-5.3225 13.49255,-20.06796 4.54761,-29.45967 C 397.69607,352.8512 379,361.15211 379,378.31012 c 0,4.42583 0.54759,6.14573 3.0617,9.61636 5.23873,7.23185 15.02368,10.02496 22.57185,6.44312 z M 226.625,403.875 C 226.28125,402.15625 226,384.60625 226,364.875 V 329 h 15.3185 c 18.06089,0 23.56167,1.23921 29.01641,6.53679 5.76213,5.59611 7.12584,8.93991 7.12206,17.46321 -0.003,5.81253 -0.50197,8.4426 -2.21957,11.68943 -2.90694,5.49507 -7.72371,9.92683 -12.9874,11.9493 -2.3375,0.89814 -4.25,1.84673 -4.25,2.10797 0,0.26124 4.18643,6.1626 9.30317,13.11414 5.11674,6.95154 9.6433,13.20166 10.05902,13.88916 0.58108,0.96098 -1.16532,1.24495 -7.55317,1.22818 L 261.5,406.95635 251.59322,392.47818 C 246.1445,384.51518 241.307,378 240.84322,378 240.37945,378 240,384.525 240,392.5 V 407 h -6.375 c -6.34,0 -6.37843,-0.0172 -7,-3.125 z m 32.16796,-39.26165 c 5.0688,-2.63085 7.15684,-10.6016 4.21649,-16.0957 -2.56333,-4.78961 -7.02518,-6.64261 -15.2003,-6.31265 L 240.5,342.5 l -0.28572,10.93573 c -0.15714,6.01466 -0.0363,11.5858 0.26862,12.38032 0.76181,1.98522 13.82063,1.12745 18.31006,-1.2027 z M 436,378 v -29 h 6.5 6.5 v 29 29 h -6.5 -6.5 z m 23.52814,21.75 c -0.35337,-3.9875 -0.50427,-16.925 -0.33532,-28.75 l 0.30718,-21.5 6.75,-0.29569 6.75,-0.29569 V 377.95431 407 h -6.41468 -6.41468 z M 489,383.5 V 360 h -3.5 -3.5 v -5.5 -5.5 h 3.5 3.5 v -10 -10 h 6.5 6.5 v 10 10 h 4 4 v 5.5 5.5 h -4 -4 V 383.5 407 H 495.5 489 Z M 436,335 v -6 h 6.5 6.5 v 6 6 h -6.5 -6.5 z m 23.71388,5.25 c -0.22228,-0.4125 -0.33131,-3 -0.24228,-5.75 l 0.16187,-5 6.68327,-0.29569 L 473,328.90862 V 334.95431 341 h -6.44098 c -3.54254,0 -6.62285,-0.3375 -6.84514,-0.75 z"
         id="path2" />
    </g>
  </g>
</svg>
